<svg xmlns="http://www.w3.org/2000/svg" xmlns:xlink="http://www.w3.org/1999/xlink" viewBox="0 0 20 20" version="1.1" shape-rendering="crispEdges"><path d="M3 20v-3h1v-1h4v-2h4v2h4v1h1v3H3z" fill="#a26d3d"/><path d="M5 15v-1H4v-1H3v-3H2V7h1V4h1V3h1V2h10v1h1v1h1v3h1v3h-1v3h-1v1h-1v1H5z" fill="#ab7b50"/><path d="M6 7h1v2H5V8h1V7zm7 0h1v2h-2V8h1V7z" fill="#ffffff"/><path d="M7 7h1v2H6V8h1V7zm7 0h1v2h-2V8h1V7z" fill="#bbc3ce"/><path d="M7 8h1v1H7V8zm7 0h1v1h-1V8z" fill="#697b94"/><path d="M6 5h3v2H8V6H6V5zm5 0h3v1h-2v1h-1V5z" fill-rule="evenodd" fill="#3b3227"/><path d="M10 12v1H9v1h2v-2h-1z" fill="#eec1ad"/><path d="M3 20v-3h1v-1h12v1h1v3H3z" fill="#ffffff"/><path d="M8 2h4v1h-1v1H9V3H8V2zM9 0v1H8v1h4V1h-1V0H9z" fill="#554838"/></svg>