<svg xmlns="http://www.w3.org/2000/svg" xmlns:xlink="http://www.w3.org/1999/xlink" viewBox="0 0 20 20" version="1.1" shape-rendering="crispEdges"><path d="M3 20v-3h1v-1h4v-2h4v2h4v1h1v3H3z" fill="#e0b687"/><path d="M5 15v-1H4v-1H3v-3H2V7h1V4h1V3h1V2h10v1h1v1h1v3h1v3h-1v3h-1v1h-1v1H5z" fill="#e3bd93"/><path d="M5 8h2v1H5V8zm7 0h2v1h-2V8z" fill="#ffffff"/><path d="M7 8h1v1H7V8zm7 0h1v1h-1V8z" fill="#5b7c8b"/><path d="M8 4v1H7v1H5V5h2V4h1zm4 0h1v1h2v1h-2V5h-1V4z" fill-rule="evenodd" fill="#523c33"/><path d="M3 10v3h1v1h1v1h10v-1h1v-1h1v-3h-3v1H6v-1H3z" fill="rgba(106,78,66,0.5)"/><path d="M10 12v1H9v1h2v-2h-1z" fill="#c7917d"/><path d="M3 20v-3h1v-1h5v1h2v-1h5v1h1v3H3z" fill="#ffffff"/><path d="M9 20v-2H8v-1H6v-1h1v-1h1v1h1v1h2v-1h1v-1h1v1h1v1h-2v1h-1v2H9z" fill="#ffffff"/><path d="M0 7h1v5h1v1h1V9h1V7h1V6h1V4h1V3h7v1h1v1h1v1h1v7h1v-2h1V7h-1V6h1V4h-1v1h-1V3h1V2h-1v1h-1V2h-2V1h-1V0h-1v1H5V0H4v1H3V0H2v1h1v2H2V2H1v1h1v1H1v2H0v1z" fill="#6a4e42"/></svg>