<svg xmlns="http://www.w3.org/2000/svg" xmlns:xlink="http://www.w3.org/1999/xlink" viewBox="0 0 20 20" version="1.1" shape-rendering="crispEdges"><path d="M3 20v-3h1v-1h4v-2h4v2h4v1h1v3H3z" fill="#eac393"/><path d="M5 15v-1H4v-1H3v-3H2V7h1V4h1V3h1V2h10v1h1v1h1v3h1v3h-1v3h-1v1h-1v1H5z" fill="#ecc99e"/><path d="M6 7h1v1h1v1H6V7zm6 0h1v1h1v1h-2V7z" fill="#ffffff"/><path d="M6 8h1v1H6V8zm6 0h1v1h-1V8z" fill="#5b7c8b"/><path d="M6 5h2v1h1v1H8V6H6V5zm8 0h-2v1h-1v1h1V6h2V5z" fill-rule="evenodd" fill="#000000"/><path d="M7 12v1h1v1h4v-1H8v-1H7z" fill="#d29985"/><g fill-rule="evenodd"><path d="M3 19h14v1H3v-1zm0-2h14v1H3v-1z" fill="#ffffff"/><path d="M3 18h14v1H3v-1zm1-2h4v1H4v-1zm8 0h4v1h-4v-1z" fill="#ffffff"/></g><path d="M3 6h1V4h1V3h2v1h1v1h4V4h1V3h2v1h1v2h1V4h-1V3h-1V2H5v1H4v1H3v2z" fill="#090806"/></svg>