<svg xmlns="http://www.w3.org/2000/svg" xmlns:xlink="http://www.w3.org/1999/xlink" viewBox="0 0 20 20" version="1.1" shape-rendering="crispEdges"><path d="M3 20v-3h1v-1h4v-2h4v2h4v1h1v3H3z" fill="#cb9e6e"/><path d="M5 15v-1H4v-1H3v-3H2V7h1V4h1V3h1V2h10v1h1v1h1v3h1v3h-1v3h-1v1h-1v1H5z" fill="#d0a87c"/><path d="M5 7h3v2H5V7zm7 0h3v2h-3V7z" fill="#ffffff"/><path d="M5 8h2v1H5V8zm7 0h2v1h-2V8z" fill="#588387"/><path d="M4 7V5h3v1H5v1H4zm12-2v2h-1V6h-2V5h3zM7 5h1v1h1v1H8V6H7V5zm6 0v1h-1v1h-1V6h1V5h1z" fill-rule="evenodd" fill="#3b3227"/><path d="M8 13h3v1H8v-1z" fill="#e6b49e"/><path d="M3 20v-3h1v-1h4v1h1v1h2v-1h1v-1h4v1h1v3H3z" fill="#ffffff"/><path d="M4 17v-1h3v1H4zm9 0v-1h3v1h-3z" fill-rule="evenodd" fill="#ffffff"/><path d="M3 6h1V4h1V3h2v1h1v1h4V4h1V3h2v1h1v2h1V4h-1V3h-1V2H5v1H4v1H3v2z" fill="#554838"/></svg>