<svg xmlns="http://www.w3.org/2000/svg" xmlns:xlink="http://www.w3.org/1999/xlink" viewBox="0 0 20 20" version="1.1" shape-rendering="crispEdges"><path d="M3 20v-3h1v-1h4v-2h4v2h4v1h1v3H3z" fill="#8d5524"/><path d="M5 15v-1H4v-1H3v-3H2V7h1V4h1V3h1V2h10v1h1v1h1v3h1v3h-1v3h-1v1h-1v1H5z" fill="#986639"/><path d="M5 7h3v2H5V7zm7 0h3v2h-3V7z" fill="#ffffff"/><path d="M5 8h2v1H5V8zm7 0h2v1h-2V8z" fill="#76778b"/><path d="M4 7V5h3v1H5v1H4zm12-2v2h-1V6h-2V5h3zM7 5h1v1h1v1H8V6H7V5zm6 0v1h-1v1h-1V6h1V5h1z" fill-rule="evenodd" fill="#7a624e"/><path d="M3 7v6h1v1h1v1h10v-1h1v-1h1V7h-1v2h-1v1h-1v1H6v-1H5V9H4V7H3z" fill="#7a624e"/><path d="M8 13v1h4v-1h1v-1h-1v1H8z" fill="#d29985"/><path d="M3 20v-3h1v-1h4v1h4v-1h4v1h1v3H3z" fill="#ffffff"/><path d="M3 20v-1h1v1H3zm2 0v-1h1v1H5zm2 0v-1h1v1H7zm2 0v-1h1v1H9zm2 0v-1h1v1h-1zm2 0v-1h1v1h-1zm2 0v-1h1v1h-1zm1-2h1v1h-1v-1zm-2 0h1v1h-1v-1zm-2 0h1v1h-1v-1zm-2 0h1v1h-1v-1zm-2 0h1v1H8v-1zm-2 0h1v1H6v-1zm-2 0h1v1H4v-1zm-1-1h1v1H3v-1zm2 0h1v1H5v-1zm2 0h1v1H7v-1zm2 0h1v1H9v-1zm2 0h1v1h-1v-1zm2 0h1v1h-1v-1zm2 0h1v1h-1v-1zM4 16h1v1H4v-1zm2 0h1v1H6v-1zm6 0h1v1h-1v-1zm2 0h1v1h-1v-1z" fill-rule="evenodd" fill="#ffffff"/><path d="M3 6h1V4h1V3h2v1h1v1h4V4h1V3h2v1h1v2h1V4h-1V3h-1V2H5v1H4v1H3v2z" fill="#b89376"/></svg>