<svg xmlns="http://www.w3.org/2000/svg" xmlns:xlink="http://www.w3.org/1999/xlink" viewBox="0 0 20 20" version="1.1" shape-rendering="crispEdges"><path d="M3 20v-3h1v-1h4v-2h4v2h4v1h1v3H3z" fill="#b68655"/><path d="M5 15v-1H4v-1H3v-3H2V7h1V4h1V3h1V2h10v1h1v1h1v3h1v3h-1v3h-1v1h-1v1H5z" fill="#bd9266"/><path d="M5 8h3v1H5V8zm7 0h3v1h-3V8z" fill="#ffffff"/><path d="M6 8h1v1H6V8zm7 0h1v1h-1V8z" fill="#697b94"/><path d="M6 5h1v1h1v1H5V6h1V5zm7 0h1v1h1v1h-3V6h1V5z" fill-rule="evenodd" fill="#523c33"/><path d="M3 11v2h1v1h1v1h10v-1h1v-1h1v-2H3z" fill="rgba(106,78,66,0.5)"/><path d="M10 12v1H9v1h2v-2h-1z" fill="#d29985"/><path d="M3 20v-3h1v-1h4v1h4v-1h4v1h1v3H3z" fill="#ffffff"/><path d="M3 8h1V5h12v3h1V4h-1V3h-1V2H5v1H4v1H3v4z" fill="#6a4e42"/></svg>