<svg xmlns="http://www.w3.org/2000/svg" xmlns:xlink="http://www.w3.org/1999/xlink" viewBox="0 0 20 20" version="1.1" shape-rendering="crispEdges"><path d="M3 20v-3h1v-1h4v-2h4v2h4v1h1v3H3z" fill="#b68655"/><path d="M5 15v-1H4v-1H3v-3H2V7h1V4h1V3h1V2h10v1h1v1h1v3h1v3h-1v3h-1v1h-1v1H5z" fill="#bd9266"/><path d="M6 7h1v1h1v1H6V7zm6 0h1v1h1v1h-2V7z" fill="#ffffff"/><path d="M6 8h1v1H6V8zm6 0h1v1h-1V8z" fill="#647b90"/><path d="M5 6h2v1H5V6zm8 0h2v1h-2V6z" fill-rule="evenodd" fill="#a3866a"/><path d="M3 7v6h1v1h1v1h10v-1h1v-1h1V7h-1v2h-1v1h-1v1H6v-1H5V9H4V7H3z" fill="#a3866a"/><path d="M8 13v1h4v-1h1v-1h-1v1H8z" fill="#d29985"/><path d="M3 20v-3h1v-1h12v1h1v3H3z" fill="#ffffff"/><path d="M8 15h4v1H8v-1z" fill="#ffffff"/><path d="M12 19v-1h3v1h-3z" fill="#ffffff"/><path d="M5 2h10v1h1v1h1v3h-1V6h-1V5h-1V4h-4v1H8v1H7v1H4V6H3V4h1V3h1V2z" fill="#e0b892"/></svg>