<svg xmlns="http://www.w3.org/2000/svg" xmlns:xlink="http://www.w3.org/1999/xlink" viewBox="0 0 20 20" version="1.1" shape-rendering="crispEdges"><path d="M3 20v-3h1v-1h4v-2h4v2h4v1h1v3H3z" fill="#ffdbac"/><path d="M5 15v-1H4v-1H3v-3H2V7h1V4h1V3h1V2h10v1h1v1h1v3h1v3h-1v3h-1v1h-1v1H5z" fill="#ffdfb4"/><path d="M5 8h2v1H5V8zm7 0h2v1h-2V8z" fill="#ffffff"/><path d="M7 8h1v1H7V8zm7 0h1v1h-1V8z" fill="#697b94"/><path d="M4 7V5h3v1H5v1H4zm12-2v2h-1V6h-2V5h3zM7 5h1v1h1v1H8V6H7V5zm6 0v1h-1v1h-1V6h1V5h1z" fill-rule="evenodd" fill="#523c33"/><path d="M3 10v3h1v1h1v1h10v-1h1v-1h1v-3h-3v1H6v-1H3z" fill="rgba(106,78,66,0.5)"/><path d="M9 13h2v1H9v-1z" fill="#e6baa8"/><path d="M3 20v-3h1v-1h3v2h6v-2h3v1h1v3H3z" fill="#ffffff"/><path d="M5 20v-4h1v4H5zm9 0v-4h1v4h-1z" fill-rule="evenodd" fill="#ffffff"/><path d="M2 7h1V5h2V4h1V3h1v1h2V3h4V2h1v1h1v1h1v1h1v2h1V6h1V4h-1V3h-1V2h-1V1h-1V0h-1v1h-2V0h-1v1H9V0H8v1H7V0H5v1H4v1H2v5z" fill="#6a4e42"/></svg>