<svg xmlns="http://www.w3.org/2000/svg" xmlns:xlink="http://www.w3.org/1999/xlink" viewBox="0 0 20 20" version="1.1" shape-rendering="crispEdges"><path d="M3 20v-3h1v-1h4v-2h4v2h4v1h1v3H3z" fill="#a26d3d"/><path d="M5 15v-1H4v-1H3v-3H2V7h1V4h1V3h1V2h10v1h1v1h1v3h1v3h-1v3h-1v1h-1v1H5z" fill="#ab7b50"/><path d="M5 7h3v2H5V7zm7 0h3v2h-3V7z" fill="#ffffff"/><path d="M7 8h1v1H7V8zm5 0h1v1h-1V8z" fill="#5b7c8b"/><path d="M7 5v1H5v1H4V6h1V5h2zm7 0v1h-2v1h-1V6h1V5h2z" fill-rule="evenodd" fill="#3b2b23"/><path d="M3 7v6h1v1h1v1h10v-1h1v-1h1V7h-1v2h-1v1h-1v1H6v-1H5V9H4V7H3z" fill="rgba(83,61,50,0.5)"/><path d="M9 13v1h1v-1H9z" fill="#d29985"/><g fill-rule="evenodd"><path d="M3 19h14v1H3v-1zm0-2h14v1H3v-1z" fill="#ffffff"/><path d="M3 18h14v1H3v-1zm1-2h4v1H4v-1zm8 0h4v1h-4v-1z" fill="#ffffff"/></g><path d="M3 7h1V5h2V3h8v1h1v1h1v2h1V3h-2V2h-2V1h-1v1h-2V1H9v1H8V1H7v1H5v1H4v1H3v3z" fill="#533d32"/></svg>