<svg xmlns="http://www.w3.org/2000/svg" xmlns:xlink="http://www.w3.org/1999/xlink" viewBox="0 0 20 20" version="1.1" shape-rendering="crispEdges"><path d="M3 20v-3h1v-1h4v-2h4v2h4v1h1v3H3z" fill="#b68655"/><path d="M5 15v-1H4v-1H3v-3H2V7h1V4h1V3h1V2h10v1h1v1h1v3h1v3h-1v3h-1v1h-1v1H5z" fill="#bd9266"/><path d="M6 8h1v1H6V8zm7 0h1v1h-1V8z" fill="#ffffff"/><path d="M7 8h1v1H7V8zm5 0h1v1h-1V8z" fill="#5b7c8b"/><path d="M8 4v1H7v1H5V5h2V4h1zm4 0h1v1h2v1h-2V5h-1V4z" fill-rule="evenodd" fill="#362e2b"/><path d="M8 12v2h4v-2H8z" fill="#ffffff"/><path d="M3 20v-3h1v-1h12v1h1v3H3z" fill="#ffffff"/><path d="M8 15h4v1H8v-1z" fill="#ffffff"/><path d="M12 19v-1h3v1h-3z" fill="#ffffff"/><path d="M3 8h1V5h12v3h1V4h-1V3h-1V2H5v1H4v1H3v4z" fill="#4e433f"/></svg>