<svg xmlns="http://www.w3.org/2000/svg" xmlns:xlink="http://www.w3.org/1999/xlink" viewBox="0 0 20 20" version="1.1" shape-rendering="crispEdges"><path d="M3 20v-3h1v-1h4v-2h4v2h4v1h1v3H3z" fill="#cb9e6e"/><path d="M5 15v-1H4v-1H3v-3H2V7h1V4h1V3h1V2h10v1h1v1h1v3h1v3h-1v3h-1v1h-1v1H5z" fill="#d0a87c"/><path d="M6 7h1v2H5V8h1V7zm7 0h1v2h-2V8h1V7z" fill="#ffffff"/><path d="M7 7h1v2H6V8h1V7zm7 0h1v2h-2V8h1V7z" fill="#c1c1ca"/><path d="M7 8h1v1H7V8zm7 0h1v1h-1V8z" fill="#76778b"/><path d="M6 5H4v2h1V6h1V5zm8 0h2v2h-1V6h-1V5z" fill-rule="evenodd" fill="#876c55"/><path d="M3 11v2h1v1h1v1h10v-1h1v-1h1v-2H3z" fill="rgba(161,128,101,0.5)"/><path d="M9 13h2v1H9v-1z" fill="#e6b49e"/><path d="M3 20v-3h1v-1h3v1h6v-1h3v1h1v3H3z" fill="#ffffff"/><path d="M4 20v-1h1v-3h1v2h8v-2h1v3h1v1H4z" fill="#ffffff"/><path d="M11 20v-1h3v1h-3z" fill="#ffffff"/><path d="M2 7h1V5h2V4h1V3h1v1h2V3h4V2h1v1h1v1h1v1h1v2h1V6h1V4h-1V3h-1V2h-1V1h-1V0h-1v1h-2V0h-1v1H9V0H8v1H7V0H5v1H4v1H2v5z" fill="#a18065"/></svg>