<svg xmlns="http://www.w3.org/2000/svg" xmlns:xlink="http://www.w3.org/1999/xlink" viewBox="0 0 20 20" version="1.1" shape-rendering="crispEdges"><path d="M3 20v-3h1v-1h4v-2h4v2h4v1h1v3H3z" fill="#8d5524"/><path d="M5 15v-1H4v-1H3v-3H2V7h1V4h1V3h1V2h10v1h1v1h1v3h1v3h-1v3h-1v1h-1v1H5z" fill="#986639"/><path d="M5 7h3v2H5V7zm7 0h3v2h-3V7z" fill="#ffffff"/><path d="M7 8h1v1H7V8zm5 0h1v1h-1V8z" fill="#76778b"/><path d="M12 7V6h1V5h1v1h1v1h-1V6h-1v1h-1zM5 7V6h1V5h1v1h1v1H7V6H6v1H5z" fill-rule="evenodd" fill="#120e11"/><path d="M8 13v1h4v-1h1v-1h-1v1H8z" fill="#eec1ad"/><g fill-rule="evenodd"><path d="M3 19h14v1H3v-1zm0-2h14v1H3v-1z" fill="#ffffff"/><path d="M3 18h14v1H3v-1zm1-2h4v1H4v-1zm8 0h4v1h-4v-1z" fill="#ffffff"/></g><path d="M8 2h4v1h-1v1H9V3H8V2zM9 0v1H8v1h4V1h-1V0H9z" fill="#2c222b"/></svg>