<svg xmlns="http://www.w3.org/2000/svg" xmlns:xlink="http://www.w3.org/1999/xlink" viewBox="0 0 20 20" version="1.1" shape-rendering="crispEdges"><path d="M3 20v-3h1v-1h4v-2h4v2h4v1h1v3H3z" fill="#b68655"/><path d="M5 15v-1H4v-1H3v-3H2V7h1V4h1V3h1V2h10v1h1v1h1v3h1v3h-1v3h-1v1h-1v1H5z" fill="#bd9266"/><path d="M6 7h1v1h1v1H6V7zm6 0h1v1h1v1h-2V7z" fill="#ffffff"/><path d="M6 8h1v1H6V8zm6 0h1v1h-1V8z" fill="#5b7c8b"/><path d="M5 5h3v1h1v1H8V6H5V5zm10 0h-3v1h-1v1h1V6h3V5z" fill-rule="evenodd" fill="#703223"/><path d="M8 13v1h4v-1h1v-1h-1v1H8z" fill="#dbac98"/><path d="M3 20v-3h1v-1h12v1h1v3H3z" fill="#ffffff"/><path d="M5 20v-2h1v-1h8v1h1v2h-2v-1h-2v1H9v-1H7v1H5z" fill="#ffffff"/><path d="M3 7h1V5h2V3h8v1h1v1h1v2h1V3h-2V2h-2V1h-1v1h-2V1H9v1H8V1H7v1H5v1H4v1H3v3z" fill="#8a3e2b"/></svg>