<svg xmlns="http://www.w3.org/2000/svg" xmlns:xlink="http://www.w3.org/1999/xlink" viewBox="0 0 20 20" version="1.1" shape-rendering="crispEdges"><path d="M3 20v-3h1v-1h4v-2h4v2h4v1h1v3H3z" fill="#a26d3d"/><path d="M5 15v-1H4v-1H3v-3H2V7h1V4h1V3h1V2h10v1h1v1h1v3h1v3h-1v3h-1v1h-1v1H5z" fill="#ab7b50"/><path d="M5 7h3v3H5V7zm7 0h3v3h-3V7z" fill="#ffffff"/><path d="M5 8h1v1H5V8zm7 0h1v1h-1V8z" fill="#d2dbdf"/><path d="M6 8h1v1H6V8zm7 0h1v1h-1V8z" fill="#5b7c8b"/><path d="M7 5v1H5v1H4V6h1V5h2zm7 0v1h-2v1h-1V6h1V5h2z" fill-rule="evenodd" fill="#120e11"/><path d="M3 7v6h1v1h1v1h10v-1h1v-1h1V7h-1v2h-1v1h-1v1H6v-1H5V9H4V7H3z" fill="#2c222b"/><path d="M9 13h2v1H9v-1z" fill="#eec1ad"/><path d="M3 20v-3h1v-1h4v1h1v1h2v-1h1v-1h4v1h1v3H3z" fill="#ffffff"/><path d="M4 17v-1h3v1H4zm9 0v-1h3v1h-3z" fill-rule="evenodd" fill="#ffffff"/><path d="M3 8h1V5h12v3h1V4h-1V3h-1V2H5v1H4v1H3v4z" fill="#2c222b"/></svg>