<svg xmlns="http://www.w3.org/2000/svg" xmlns:xlink="http://www.w3.org/1999/xlink" viewBox="0 0 20 20" version="1.1" shape-rendering="crispEdges"><path d="M3 20v-3h1v-1h4v-2h4v2h4v1h1v3H3z" fill="#eac393"/><path d="M5 15v-1H4v-1H3v-3H2V7h1V4h1V3h1V2h10v1h1v1h1v3h1v3h-1v3h-1v1h-1v1H5z" fill="#ecc99e"/><path d="M5 7h3v2H5V7zm7 0h3v2h-3V7z" fill="#ffffff"/><path d="M6 8h1v1H6V8zm7 1V8h1v1h-1z" fill="#647b90"/><path d="M4 7V5h3v1H5v1H4zm12-2v2h-1V6h-2V5h3zM7 5h1v1h1v1H8V6H7V5zm6 0v1h-1v1h-1V6h1V5h1z" fill-rule="evenodd" fill="#120e11"/><path d="M3 7v6h1v1h1v1h10v-1h1v-1h1V7h-1v2h-1v1h-1v1H6v-1H5V9H4V7H3z" fill="rgba(44,34,43,0.75)"/><path d="M8 13v1h1v-1h3v-1H9v1H8z" fill="#ffd3be"/><path d="M3 20v-3h1v-1h3v1h6v-1h3v1h1v3H3z" fill="#ffffff"/><path d="M4 20v-1h1v-3h1v2h8v-2h1v3h1v1H4z" fill="#ffffff"/><path d="M11 20v-1h3v1h-3z" fill="#ffffff"/></svg>