<svg xmlns="http://www.w3.org/2000/svg" xmlns:xlink="http://www.w3.org/1999/xlink" viewBox="0 0 20 20" version="1.1" shape-rendering="crispEdges"><path d="M3 20v-3h1v-1h4v-2h4v2h4v1h1v3H3z" fill="#8d5524"/><path d="M5 15v-1H4v-1H3v-3H2V7h1V4h1V3h1V2h10v1h1v1h1v3h1v3h-1v3h-1v1h-1v1H5z" fill="#986639"/><path d="M5 7h3v3H5V7zm7 0h3v3h-3V7z" fill="#ffffff"/><path d="M6 8h1v1H6V8zm7 0h1v1h-1V8z" fill="#697b94"/><path d="M12 7V6h1V5h1v1h1v1h-1V6h-1v1h-1zM5 7V6h1V5h1v1h1v1H7V6H6v1H5z" fill-rule="evenodd" fill="#7a6450"/><path d="M3 7v6h1v1h1v1h10v-1h1v-1h1V7h-1v2h-1v1h-1v1H6v-1H5V9H4V7H3z" fill="#7a6450"/><path d="M9 13h2v1H9v-1z" fill="#dbac98"/><path d="M3 20v-3h1v-1h5v1h2v-1h5v1h1v3H3z" fill="#ffffff"/><path d="M9 20v-2H8v-1H6v-1h1v-1h1v1h1v1h2v-1h1v-1h1v1h1v1h-2v1h-1v2H9z" fill="#ffffff"/></svg>