<svg xmlns="http://www.w3.org/2000/svg" xmlns:xlink="http://www.w3.org/1999/xlink" viewBox="0 0 20 20" version="1.1" shape-rendering="crispEdges"><path d="M3 20v-3h1v-1h4v-2h4v2h4v1h1v3H3z" fill="#a26d3d"/><path d="M5 15v-1H4v-1H3v-3H2V7h1V4h1V3h1V2h10v1h1v1h1v3h1v3h-1v3h-1v1h-1v1H5z" fill="#ab7b50"/><path d="M5 7v1h3V7H5zm7 0h3v1h-3V7z" fill="#ffffff"/><path d="M5 9V8h1V7h1v1h1v1H5zm7 0V8h1V7h1v1h1v1h-3z" fill="#b4b5c0"/><path d="M6 8h1v1H6V8zm7 0h1v1h-1V8z" fill="#76778b"/><path d="M6 5h1v1h1v1H5V6h1V5zm7 0h1v1h1v1h-3V6h1V5z" fill-rule="evenodd" fill="#5e322d"/><path d="M3 13h1v1h1v1h10v-1h1v-1h1v-3h-1v1h-1v1H5v-1H4v-1H3v3z" fill="#78403a"/><path d="M7 12v1h1v1h4v-1H8v-1H7z" fill="#dbac98"/><path d="M3 20v-3h1v-1h4v1h4v-1h4v1h1v3H3z" fill="#ffffff"/><path d="M5 2h10v1h1v1h1v3h-1V6h-1V5h-1V4h-4v1H8v1H7v1H4V6H3V4h1V3h1V2z" fill="#78403a"/></svg>