<svg xmlns="http://www.w3.org/2000/svg" xmlns:xlink="http://www.w3.org/1999/xlink" viewBox="0 0 20 20" version="1.1" shape-rendering="crispEdges"><path d="M3 20v-3h1v-1h4v-2h4v2h4v1h1v3H3z" fill="#b68655"/><path d="M5 15v-1H4v-1H3v-3H2V7h1V4h1V3h1V2h10v1h1v1h1v3h1v3h-1v3h-1v1h-1v1H5z" fill="#bd9266"/><path d="M5 7h3v3H5V7zm7 0h3v3h-3V7z" fill="#ffffff"/><path d="M5 8h1v1H5V8zm7 0h1v1h-1V8z" fill="#d2dbdf"/><path d="M6 8h1v1H6V8zm7 0h1v1h-1V8z" fill="#5b7c8b"/><path d="M6 5H4v2h1V6h1V5zm8 0h2v2h-1V6h-1V5z" fill-rule="evenodd" fill="#703c36"/><path d="M3 13h1v1h1v1h10v-1h1v-1h1v-3h-1v1h-1v1H5v-1H4v-1H3v3z" fill="rgba(138,73,66,0.5)"/><path d="M9 13h2v1H9v-1z" fill="#d29985"/><path d="M3 20v-3h1v-1h4v1h4v-1h4v1h1v3H3z" fill="#ffffff"/><path d="M3 20v-2h1v2H3zm3 0v-2h2v2H6zm4 0v-2h2v2h-2zm4 0v-2h2v2h-2zm2-3v1h1v-1h-1zm-2 1v-2h-2v2h2zm-6-1v1h2v-1H8zm-4-1v2h2v-2H4z" fill-rule="evenodd" fill="#ffffff"/><path d="M3 6h1V4h1V3h2v1h1v1h4V4h1V3h2v1h1v2h1V4h-1V3h-1V2H5v1H4v1H3v2z" fill="#8a4942"/></svg>