<svg xmlns="http://www.w3.org/2000/svg" xmlns:xlink="http://www.w3.org/1999/xlink" viewBox="0 0 20 20" version="1.1" shape-rendering="crispEdges"><path d="M3 20v-3h1v-1h4v-2h4v2h4v1h1v3H3z" fill="#f5cfa0"/><path d="M5 15v-1H4v-1H3v-3H2V7h1V4h1V3h1V2h10v1h1v1h1v3h1v3h-1v3h-1v1h-1v1H5z" fill="#f6d4a9"/><path d="M5 7h3v3H5V7zm7 0h3v3h-3V7z" fill="#ffffff"/><path d="M6 8h1v1H6V8zm7 0h1v1h-1V8z" fill="#76778b"/><path d="M7 5v1H5v1H4V6h1V5h2zm6 0h2v1h1v1h-1V6h-2V5z" fill-rule="evenodd" fill="#3b3227"/><path d="M3 13h1v1h1v1h10v-1h1v-1h1v-3h-1v1h-1v1H5v-1H4v-1H3v3z" fill="#554838"/><path d="M8 13v1h1v-1h3v-1H9v1H8z" fill="#dbac98"/><path d="M3 20v-3h1v-1h5v1h2v-1h5v1h1v3H3z" fill="#ffffff"/><path d="M9 20v-2H8v-1H6v-1h1v-1h1v1h1v1h2v-1h1v-1h1v1h1v1h-2v1h-1v2H9z" fill="#ffffff"/><path d="M5 2h10v1h1v1h1v3h-1V6h-1V5h-1V4h-4v1H8v1H7v1H4V6H3V4h1V3h1V2z" fill="#554838"/></svg>