<svg xmlns="http://www.w3.org/2000/svg" xmlns:xlink="http://www.w3.org/1999/xlink" viewBox="0 0 20 20" version="1.1" shape-rendering="crispEdges"><path d="M3 20v-3h1v-1h4v-2h4v2h4v1h1v3H3z" fill="#f5cfa0"/><path d="M5 15v-1H4v-1H3v-3H2V7h1V4h1V3h1V2h10v1h1v1h1v3h1v3h-1v3h-1v1h-1v1H5z" fill="#f6d4a9"/><path d="M5 7v1h3V7H5zm7 0h3v1h-3V7z" fill="#ffffff"/><path d="M5 9V8h1V7h1v1h1v1H5zm7 0V8h1V7h1v1h1v1h-3z" fill="#b4b5c0"/><path d="M6 8h1v1H6V8zm7 0h1v1h-1V8z" fill="#76778b"/><path d="M5 5h3v1h1v1H8V6H5V5zm10 0h-3v1h-1v1h1V6h3V5z" fill-rule="evenodd" fill="#000000"/><path d="M9 12v2h2v-2H9z" fill="#d29985"/><path d="M3 20v-3h1v-1h12v1h1v3H3z" fill="#ffffff"/><path d="M8 15h4v1H8v-1z" fill="#ffffff"/><path d="M12 19v-1h3v1h-3z" fill="#ffffff"/><path d="M8 2h4v1h-1v1H9V3H8V2zM9 0v1H8v1h4V1h-1V0H9z" fill="#090806"/></svg>