<svg xmlns="http://www.w3.org/2000/svg" xmlns:xlink="http://www.w3.org/1999/xlink" viewBox="0 0 20 20" version="1.1" shape-rendering="crispEdges"><path d="M3 20v-3h1v-1h4v-2h4v2h4v1h1v3H3z" fill="#cb9e6e"/><path d="M5 15v-1H4v-1H3v-3H2V7h1V4h1V3h1V2h10v1h1v1h1v3h1v3h-1v3h-1v1h-1v1H5z" fill="#d0a87c"/><path d="M5 7h3v2H5V7zm7 0h3v2h-3V7z" fill="#ffffff"/><path d="M6 8h1v1H6V8zm7 1V8h1v1h-1z" fill="#588387"/><path d="M5 6h2v1H5V6zm8 0h2v1h-2V6z" fill-rule="evenodd" fill="#873d2a"/><path d="M3 13h1v1h1v1h10v-1h1v-1h1v-3h-1v1h-1v1H5v-1H4v-1H3v3z" fill="rgba(161,72,50,0.5)"/><path d="M7 12v1h1v1h4v-1H8v-1H7z" fill="#e6a791"/><path d="M3 20v-3h1v-1h3v1h6v-1h3v1h1v3H3z" fill="#ffffff"/><path d="M4 20v-1h1v-3h1v2h8v-2h1v3h1v1H4z" fill="#ffffff"/><path d="M11 20v-1h3v1h-3z" fill="#ffffff"/><path d="M5 2v1H4v1H3v3h2V6h1V5h6V4h1V3h1v1h-1v1h1v1h1v1h2V4h-1V3h-1V2H5z" fill="#a14832"/></svg>