<svg xmlns="http://www.w3.org/2000/svg" xmlns:xlink="http://www.w3.org/1999/xlink" viewBox="0 0 20 20" version="1.1" shape-rendering="crispEdges"><path d="M3 20v-3h1v-1h4v-2h4v2h4v1h1v3H3z" fill="#8d5524"/><path d="M5 15v-1H4v-1H3v-3H2V7h1V4h1V3h1V2h10v1h1v1h1v3h1v3h-1v3h-1v1h-1v1H5z" fill="#986639"/><path d="M6 7h1v1h1v1H6V7zm6 0h1v1h1v1h-2V7z" fill="#ffffff"/><path d="M6 8h1v1H6V8zm6 0h1v1h-1V8z" fill="#588387"/><path d="M4 7V6h1V5h1v1H5v1H4zm10-2h1v1h1v1h-1V6h-1V5z" fill-rule="evenodd" fill="#000000"/><path d="M3 10v3h1v1h1v1h10v-1h1v-1h1v-3h-3v1H6v-1H3z" fill="rgba(9,8,6,0.5)"/><path d="M8 13h4v1H8v-1z" fill="#dbac98"/><path d="M3 20v-3h1v-1h4v1h4v-1h4v1h1v3H3z" fill="#ffffff"/><path d="M8 2h4v1h-1v1H9V3H8V2zM9 0v1H8v1h4V1h-1V0H9z" fill="#090806"/></svg>