<svg xmlns="http://www.w3.org/2000/svg" xmlns:xlink="http://www.w3.org/1999/xlink" viewBox="0 0 20 20" version="1.1" shape-rendering="crispEdges"><path d="M3 20v-3h1v-1h4v-2h4v2h4v1h1v3H3z" fill="#b68655"/><path d="M5 15v-1H4v-1H3v-3H2V7h1V4h1V3h1V2h10v1h1v1h1v3h1v3h-1v3h-1v1h-1v1H5z" fill="#bd9266"/><path d="M5 7v1h3V7H5zm7 0h3v1h-3V7z" fill="#ffffff"/><path d="M5 9V8h1V7h1v1h1v1H5zm7 0V8h1V7h1v1h1v1h-3z" fill="#b4b5c0"/><path d="M6 8h1v1H6V8zm7 0h1v1h-1V8z" fill="#76778b"/><path d="M5 6h2v1H5V6zm8 0h2v1h-2V6z" fill-rule="evenodd" fill="#000000"/><path d="M3 13h1v1h1v1h10v-1h1v-1h1v-3h-1v1h-1v1H5v-1H4v-1H3v3z" fill="rgba(9,8,6,0.5)"/><path d="M9 13h2v1H9v-1z" fill="#d29985"/><g fill-rule="evenodd"><path d="M3 19h14v1H3v-1zm0-2h14v1H3v-1z" fill="#ffffff"/><path d="M3 18h14v1H3v-1zm1-2h4v1H4v-1zm8 0h4v1h-4v-1z" fill="#ffffff"/></g><path d="M2 4v1h1v1h2V4h1V2H4v1H3v1H2zm6-1h2v1h2V3h1V2H8v1zm6 1h1v2h2V5h1V4h-1V3h-1V2h-2v2z" fill-rule="evenodd" fill="#090806"/></svg>