<svg xmlns="http://www.w3.org/2000/svg" xmlns:xlink="http://www.w3.org/1999/xlink" viewBox="0 0 20 20" version="1.1" shape-rendering="crispEdges"><path d="M3 20v-3h1v-1h4v-2h4v2h4v1h1v3H3z" fill="#f5cfa0"/><path d="M5 15v-1H4v-1H3v-3H2V7h1V4h1V3h1V2h10v1h1v1h1v3h1v3h-1v3h-1v1h-1v1H5z" fill="#f6d4a9"/><path d="M5 7h3v2H5V7zm7 0h3v2h-3V7z" fill="#ffffff"/><path d="M6 8h1v1H6V8zm7 1V8h1v1h-1z" fill="#76778b"/><path d="M12 7V6h1V5h1v1h1v1h-1V6h-1v1h-1zM5 7V6h1V5h1v1h1v1H7V6H6v1H5z" fill-rule="evenodd" fill="#9c4630"/><path d="M3 11v2h1v1h1v1h10v-1h1v-1h1v-2H3z" fill="rgba(181,82,57,0.5)"/><path d="M8 12v2h4v-2H8z" fill="#ffffff"/><path d="M3 20v-3h1v-1h12v1h1v3H3z" fill="#ffffff"/><path d="M8 15h4v1H8v-1z" fill="#ffffff"/><path d="M12 19v-1h3v1h-3z" fill="#ffffff"/><path d="M3 7h1V5h2V4h2V3h1v1h2v1h2v1h2v1h2V4h-1V3h-1V2H5v1H4v1H3v3z" fill="#b55239"/></svg>