<svg xmlns="http://www.w3.org/2000/svg" xmlns:xlink="http://www.w3.org/1999/xlink" viewBox="0 0 20 20" version="1.1" shape-rendering="crispEdges"><path d="M3 20v-3h1v-1h4v-2h4v2h4v1h1v3H3z" fill="#8d5524"/><path d="M5 15v-1H4v-1H3v-3H2V7h1V4h1V3h1V2h10v1h1v1h1v3h1v3h-1v3h-1v1h-1v1H5z" fill="#986639"/><path d="M5 9V7h3v2H5zm7-2h3v2h-3V7z" fill="#ffffff"/><path d="M7 8v1h1V8H7zm7 0h1v1h-1V8z" fill="#76778b"/><path d="M6 5H4v2h1V6h1V5zm8 0h2v2h-1V6h-1V5z" fill-rule="evenodd" fill="#3b2b23"/><path d="M3 10v3h1v1h1v1h10v-1h1v-1h1v-3h-3v1H6v-1H3z" fill="rgba(83,61,50,0.5)"/><path d="M9 13v1h1v-1H9z" fill="#eec1ad"/><path d="M3 20v-3h1v-1h4v1h4v-1h4v1h1v3H3z" fill="#ffffff"/><path d="M3 20v-1h1v1H3zm2 0v-1h1v1H5zm2 0v-1h1v1H7zm2 0v-1h1v1H9zm2 0v-1h1v1h-1zm2 0v-1h1v1h-1zm2 0v-1h1v1h-1zm1-2h1v1h-1v-1zm-2 0h1v1h-1v-1zm-2 0h1v1h-1v-1zm-2 0h1v1h-1v-1zm-2 0h1v1H8v-1zm-2 0h1v1H6v-1zm-2 0h1v1H4v-1zm-1-1h1v1H3v-1zm2 0h1v1H5v-1zm2 0h1v1H7v-1zm2 0h1v1H9v-1zm2 0h1v1h-1v-1zm2 0h1v1h-1v-1zm2 0h1v1h-1v-1zM4 16h1v1H4v-1zm2 0h1v1H6v-1zm6 0h1v1h-1v-1zm2 0h1v1h-1v-1z" fill-rule="evenodd" fill="#ffffff"/><path d="M4 4h12V3h-1V2H5v1H4v1z" fill="#533d32"/></svg>