<svg xmlns="http://www.w3.org/2000/svg" xmlns:xlink="http://www.w3.org/1999/xlink" viewBox="0 0 20 20" version="1.1" shape-rendering="crispEdges"><path d="M3 20v-3h1v-1h4v-2h4v2h4v1h1v3H3z" fill="#e0b687"/><path d="M5 15v-1H4v-1H3v-3H2V7h1V4h1V3h1V2h10v1h1v1h1v3h1v3h-1v3h-1v1h-1v1H5z" fill="#e3bd93"/><path d="M5 7h3v2H5V7zm7 0h3v2h-3V7z" fill="#ffffff"/><path d="M7 8h1v1H7V8zm5 0h1v1h-1V8z" fill="#76778b"/><path d="M5 6h2v1H5V6zm8 0h2v1h-2V6z" fill-rule="evenodd" fill="#7d6450"/><path d="M3 13h1v1h1v1h10v-1h1v-1h1v-3h-1v1h-1v1H5v-1H4v-1H3v3z" fill="rgba(151,121,97,0.75)"/><path d="M9 13h2v1H9v-1z" fill="#facbb6"/><path d="M3 20v-3h1v-1h4v1h4v-1h4v1h1v3H3z" fill="#ffffff"/><path d="M5 2h10v1h1v1h1v3h-1V6h-1V5h-1V4h-4v1H8v1H7v1H4V6H3V4h1V3h1V2z" fill="#977961"/></svg>