<svg xmlns="http://www.w3.org/2000/svg" xmlns:xlink="http://www.w3.org/1999/xlink" viewBox="0 0 20 20" version="1.1" shape-rendering="crispEdges"><path d="M3 20v-3h1v-1h4v-2h4v2h4v1h1v3H3z" fill="#a26d3d"/><path d="M5 15v-1H4v-1H3v-3H2V7h1V4h1V3h1V2h10v1h1v1h1v3h1v3h-1v3h-1v1h-1v1H5z" fill="#ab7b50"/><path d="M5 7v1h3V7H5zm7 0h3v1h-3V7z" fill="#ffffff"/><path d="M5 9V8h1V7h1v1h1v1H5zm7 0V8h1V7h1v1h1v1h-3z" fill="#abb7c2"/><path d="M6 8h1v1H6V8zm7 0h1v1h-1V8z" fill="#647b90"/><path d="M12 7V6h1V5h1v1h1v1h-1V6h-1v1h-1zM5 7V6h1V5h1v1h1v1H7V6H6v1H5z" fill-rule="evenodd" fill="#91412d"/><path d="M3 11v2h1v1h1v1h10v-1h1v-1h1v-2H3z" fill="rgba(145,65,45,0.5)"/><path d="M8 13h3v1H8v-1z" fill="#d29985"/><path d="M3 20v-3h1v-1h12v1h1v3H3z" fill="#ffffff"/><path d="M8 16v1H7v1h1v1h1v-1h2v1h1v-1h1v-1h-1v-1H8z" fill="#ffffff"/><path d="M9 16v1h2v-1H9z" fill="#ffffff"/><path d="M3 7h1V5h2V3h8v1h1v1h1v2h1V3h-2V2h-2V1h-1v1h-2V1H9v1H8V1H7v1H5v1H4v1H3v3z" fill="#cf5d40"/></svg>