<svg xmlns="http://www.w3.org/2000/svg" xmlns:xlink="http://www.w3.org/1999/xlink" viewBox="0 0 20 20" version="1.1" shape-rendering="crispEdges"><path d="M3 20v-3h1v-1h4v-2h4v2h4v1h1v3H3z" fill="#eac393"/><path d="M5 15v-1H4v-1H3v-3H2V7h1V4h1V3h1V2h10v1h1v1h1v3h1v3h-1v3h-1v1h-1v1H5z" fill="#ecc99e"/><path d="M5 7h3v3H5V7zm7 0h3v3h-3V7z" fill="#ffffff"/><path d="M6 7v2h2V8H7V7H6zm7 0v2h2V8h-1V7h-1z" fill="#a4bbbe"/><path d="M6 8h1v1H6V8zm7 0h1v1h-1V8z" fill="#588387"/><path d="M7 7v1h1V7H7zm7 0h1v1h-1V7z" fill="#d1ddde"/><path d="M5 5h3v1h1v1H8V6H5V5zm10 0h-3v1h-1v1h1V6h3V5z" fill-rule="evenodd" fill="#9e8267"/><path d="M3 10v3h1v1h1v1h10v-1h1v-1h1v-3h-3v1H6v-1H3z" fill="rgba(184,151,120,0.5)"/><path d="M8 12v1h3v1h1v-1h-1v-1H8z" fill="#ffd3be"/><path d="M3 20v-3h1v-1h3v1h6v-1h3v1h1v3H3z" fill="#ffffff"/><path d="M4 20v-1h1v-3h1v2h8v-2h1v3h1v1H4z" fill="#ffffff"/><path d="M11 20v-1h3v1h-3z" fill="#ffffff"/><path d="M4 4h12V3h-1V2H5v1H4v1z" fill="#b89778"/></svg>