<svg xmlns="http://www.w3.org/2000/svg" xmlns:xlink="http://www.w3.org/1999/xlink" viewBox="0 0 20 20" version="1.1" shape-rendering="crispEdges"><path d="M3 20v-3h1v-1h4v-2h4v2h4v1h1v3H3z" fill="#cb9e6e"/><path d="M5 15v-1H4v-1H3v-3H2V7h1V4h1V3h1V2h10v1h1v1h1v3h1v3h-1v3h-1v1h-1v1H5z" fill="#d0a87c"/><path d="M5 7h3v3H5V7zm7 0h3v3h-3V7z" fill="#ffffff"/><path d="M6 7v2h2V8H7V7H6zm7 0v2h2V8h-1V7h-1z" fill="#abb7c2"/><path d="M6 8h1v1H6V8zm7 0h1v1h-1V8z" fill="#647b90"/><path d="M7 7v1h1V7H7zm7 0h1v1h-1V7z" fill="#d4dbe1"/><path d="M12 7V6h1V5h1v1h1v1h-1V6h-1v1h-1zM5 7V6h1V5h1v1h1v1H7V6H6v1H5z" fill-rule="evenodd" fill="#3b2b23"/><path d="M10 12v1H9v1h2v-2h-1z" fill="#eec1ad"/><path d="M3 20v-3h1v-1h12v1h1v3H3z" fill="#ffffff"/><path d="M9 20v-2H8v-1h1v-1h2v1h1v1h-1v2H9z" fill="#ffffff"/><path d="M0 7h1v5h1v1h1V9h1V7h1V6h1V4h1V3h7v1h1v1h1v1h1v7h1v-2h1V7h-1V6h1V4h-1v1h-1V3h1V2h-1v1h-1V2h-2V1h-1V0h-1v1H5V0H4v1H3V0H2v1h1v2H2V2H1v1h1v1H1v2H0v1z" fill="#533d32"/></svg>