<svg xmlns="http://www.w3.org/2000/svg" xmlns:xlink="http://www.w3.org/1999/xlink" viewBox="0 0 20 20" version="1.1" shape-rendering="crispEdges"><path d="M3 20v-3h1v-1h4v-2h4v2h4v1h1v3H3z" fill="#cb9e6e"/><path d="M5 15v-1H4v-1H3v-3H2V7h1V4h1V3h1V2h10v1h1v1h1v3h1v3h-1v3h-1v1h-1v1H5z" fill="#d0a87c"/><path d="M6 8h1v1H6V8zm7 0h1v1h-1V8z" fill="#ffffff"/><path d="M7 8h1v1H7V8zm5 0h1v1h-1V8z" fill="#647b90"/><path d="M7 5v1H5v1H4V6h1V5h2zm7 0v1h-2v1h-1V6h1V5h2z" fill-rule="evenodd" fill="#362e2b"/><path d="M8 12v1h3v1h1v-1h-1v-1H8z" fill="#e6a791"/><path d="M3 20v-3h1v-1h5v1h2v-1h5v1h1v3H3z" fill="#ffffff"/><path d="M9 20v-2H8v-1H6v-1h1v-1h1v1h1v1h2v-1h1v-1h1v1h1v1h-2v1h-1v2H9z" fill="#ffffff"/><path d="M3 7h1V5h2V3h8v1h1v1h1v2h1V3h-2V2h-2V1h-1v1h-2V1H9v1H8V1H7v1H5v1H4v1H3v3z" fill="#4e433f"/></svg>