<svg xmlns="http://www.w3.org/2000/svg" xmlns:xlink="http://www.w3.org/1999/xlink" viewBox="0 0 20 20" version="1.1" shape-rendering="crispEdges"><path d="M3 20v-3h1v-1h4v-2h4v2h4v1h1v3H3z" fill="#ffdbac"/><path d="M5 15v-1H4v-1H3v-3H2V7h1V4h1V3h1V2h10v1h1v1h1v3h1v3h-1v3h-1v1h-1v1H5z" fill="#ffdfb4"/><path d="M5 9V7h3v2H5zm7-2h3v2h-3V7z" fill="#ffffff"/><path d="M7 8v1h1V8H7zm7 0h1v1h-1V8z" fill="#647b90"/><path d="M4 7V5h3v1H5v1H4zm12-2v2h-1V6h-2V5h3zM7 5h1v1h1v1H8V6H7V5zm6 0v1h-1v1h-1V6h1V5h1z" fill-rule="evenodd" fill="#9e8f88"/><path d="M10 12v1H9v1h2v-2h-1z" fill="#d29985"/><path d="M3 20v-3h1v-1h4v1h1v1h2v-1h1v-1h4v1h1v3H3z" fill="#ffffff"/><path d="M4 17v-1h3v1H4zm9 0v-1h3v1h-3z" fill-rule="evenodd" fill="#ffffff"/><path d="M2 7h1V5h2V4h1V3h1v1h2V3h4V2h1v1h1v1h1v1h1v2h1V6h1V4h-1V3h-1V2h-1V1h-1V0h-1v1h-2V0h-1v1H9V0H8v1H7V0H5v1H4v1H2v5z" fill="#b7a69e"/></svg>