<svg xmlns="http://www.w3.org/2000/svg" xmlns:xlink="http://www.w3.org/1999/xlink" viewBox="0 0 20 20" version="1.1" shape-rendering="crispEdges"><path d="M3 20v-3h1v-1h4v-2h4v2h4v1h1v3H3z" fill="#ffdbac"/><path d="M5 15v-1H4v-1H3v-3H2V7h1V4h1V3h1V2h10v1h1v1h1v3h1v3h-1v3h-1v1h-1v1H5z" fill="#ffdfb4"/><path d="M6 7h1v2H5V8h1V7zm7 0h1v2h-2V8h1V7z" fill="#ffffff"/><path d="M7 7h1v2H6V8h1V7zm7 0h1v2h-2V8h1V7z" fill="#b4c3ca"/><path d="M7 8h1v1H7V8zm7 0h1v1h-1V8z" fill="#5b7c8b"/><path d="M7 5v1H5v1H4V6h1V5h2zm7 0v1h-2v1h-1V6h1V5h2z" fill-rule="evenodd" fill="#784632"/><path d="M7 12v1h1v1h4v-1H8v-1H7z" fill="#d29985"/><path d="M3 20v-3h1v-1h3v2h6v-2h3v1h1v3H3z" fill="#ffffff"/><path d="M5 20v-4h1v4H5zm9 0v-4h1v4h-1z" fill-rule="evenodd" fill="#ffffff"/></svg>