<svg xmlns="http://www.w3.org/2000/svg" xmlns:xlink="http://www.w3.org/1999/xlink" viewBox="0 0 20 20" version="1.1" shape-rendering="crispEdges"><path d="M3 20v-3h1v-1h4v-2h4v2h4v1h1v3H3z" fill="#e0b687"/><path d="M5 15v-1H4v-1H3v-3H2V7h1V4h1V3h1V2h10v1h1v1h1v3h1v3h-1v3h-1v1h-1v1H5z" fill="#e3bd93"/><path d="M6 7h1v1h1v1H6V7zm6 0h1v1h1v1h-2V7z" fill="#ffffff"/><path d="M6 8h1v1H6V8zm6 0h1v1h-1V8z" fill="#647b90"/><path d="M5 6h2v1H5V6zm8 0h2v1h-2V6z" fill-rule="evenodd" fill="#8c7058"/><path d="M8 12v1h3v1h1v-1h-1v-1H8z" fill="#c7917d"/><path d="M3 20v-3h1v-1h12v1h1v3H3z" fill="#ffffff"/><path d="M9 20v-2H8v-1h1v-1h2v1h1v1h-1v2H9z" fill="#ffffff"/><path d="M3 8h1V5h12v3h1V4h-1V3h-1V2H5v1H4v1H3v4z" fill="#a7856a"/></svg>