<svg xmlns="http://www.w3.org/2000/svg" xmlns:xlink="http://www.w3.org/1999/xlink" viewBox="0 0 20 20" version="1.1" shape-rendering="crispEdges"><path d="M3 20v-3h1v-1h4v-2h4v2h4v1h1v3H3z" fill="#f5cfa0"/><path d="M5 15v-1H4v-1H3v-3H2V7h1V4h1V3h1V2h10v1h1v1h1v3h1v3h-1v3h-1v1h-1v1H5z" fill="#f6d4a9"/><path d="M5 7h3v3H5V7zm7 0h3v3h-3V7z" fill="#ffffff"/><path d="M6 8h1v1H6V8zm7 0h1v1h-1V8z" fill="#5b7c8b"/><path d="M4 7V5h3v1H5v1H4zm12-2v2h-1V6h-2V5h3zM7 5h1v1h1v1H8V6H7V5zm6 0v1h-1v1h-1V6h1V5h1z" fill-rule="evenodd" fill="#120e11"/><path d="M8 13v1h1v-1h3v-1H9v1H8z" fill="#d29985"/><path d="M3 20v-3h1v-1h12v1h1v3H3z" fill="#ffffff"/><path d="M5 20v-2h1v-1h8v1h1v2h-2v-1h-2v1H9v-1H7v1H5z" fill="#ffffff"/><path d="M3 3v2h1V4h1V3h10v1h1v1h1V3h-1V2H4v1H3z" fill="#2c222b"/></svg>