<svg xmlns="http://www.w3.org/2000/svg" xmlns:xlink="http://www.w3.org/1999/xlink" viewBox="0 0 20 20" version="1.1" shape-rendering="crispEdges"><path d="M3 20v-3h1v-1h4v-2h4v2h4v1h1v3H3z" fill="#8d5524"/><path d="M5 15v-1H4v-1H3v-3H2V7h1V4h1V3h1V2h10v1h1v1h1v3h1v3h-1v3h-1v1h-1v1H5z" fill="#986639"/><path d="M5 7h3v3H5V7zm7 0h3v3h-3V7z" fill="#ffffff"/><path d="M6 7v2h2V8H7V7H6zm7 0v2h2V8h-1V7h-1z" fill="#abb7c2"/><path d="M6 8h1v1H6V8zm7 0h1v1h-1V8z" fill="#647b90"/><path d="M7 7v1h1V7H7zm7 0h1v1h-1V7z" fill="#d4dbe1"/><path d="M7 5v1H5v1H4V6h1V5h2zm6 0h2v1h1v1h-1V6h-2V5z" fill-rule="evenodd" fill="#47342c"/><path d="M8 12v2h4v-2H8z" fill="#ffffff"/><path d="M3 20v-3h1v-1h4v1h4v-1h4v1h1v3H3z" fill="#ffffff"/><path d="M3 20v-2h1v2H3zm3 0v-2h2v2H6zm4 0v-2h2v2h-2zm4 0v-2h2v2h-2zm2-3v1h1v-1h-1zm-2 1v-2h-2v2h2zm-6-1v1h2v-1H8zm-4-1v2h2v-2H4z" fill-rule="evenodd" fill="#ffffff"/><path d="M2 7h1V5h2V4h1V3h1v1h2V3h4V2h1v1h1v1h1v1h1v2h1V6h1V4h-1V3h-1V2h-1V1h-1V0h-1v1h-2V0h-1v1H9V0H8v1H7V0H5v1H4v1H2v5z" fill="#61473c"/></svg>