<svg xmlns="http://www.w3.org/2000/svg" xmlns:xlink="http://www.w3.org/1999/xlink" viewBox="0 0 20 20" version="1.1" shape-rendering="crispEdges"><path d="M3 20v-3h1v-1h4v-2h4v2h4v1h1v3H3z" fill="#eac393"/><path d="M5 15v-1H4v-1H3v-3H2V7h1V4h1V3h1V2h10v1h1v1h1v3h1v3h-1v3h-1v1h-1v1H5z" fill="#ecc99e"/><path d="M5 7h3v3H5V7zm7 0h3v3h-3V7z" fill="#ffffff"/><path d="M6 8h1v1H6V8zm7 0h1v1h-1V8z" fill="#588387"/><path d="M6 5h1v1h1v1H5V6h1V5zm7 0h1v1h1v1h-3V6h1V5z" fill-rule="evenodd" fill="#000000"/><path d="M3 7v6h1v1h1v1h10v-1h1v-1h1V7h-1v2h-1v1h-1v1H6v-1H5V9H4V7H3z" fill="#090806"/><path d="M10 12v1H9v1h2v-2h-1z" fill="#d29985"/><g fill-rule="evenodd"><path d="M3 19h14v1H3v-1zm0-2h14v1H3v-1z" fill="#ffffff"/><path d="M3 18h14v1H3v-1zm1-2h4v1H4v-1zm8 0h4v1h-4v-1z" fill="#ffffff"/></g><path d="M3 7h1V5h2V4h2V3h1v1h2v1h2v1h2v1h2V4h-1V3h-1V2H5v1H4v1H3v3z" fill="#090806"/></svg>