<svg xmlns="http://www.w3.org/2000/svg" xmlns:xlink="http://www.w3.org/1999/xlink" viewBox="0 0 20 20" version="1.1" shape-rendering="crispEdges"><path d="M3 20v-3h1v-1h4v-2h4v2h4v1h1v3H3z" fill="#ffdbac"/><path d="M5 15v-1H4v-1H3v-3H2V7h1V4h1V3h1V2h10v1h1v1h1v3h1v3h-1v3h-1v1h-1v1H5z" fill="#ffdfb4"/><path d="M5 7h3v2H5V7zm7 0h3v2h-3V7z" fill="#ffffff"/><path d="M7 8h1v1H7V8zm5 0h1v1h-1V8z" fill="#76778b"/><path d="M7 5v1H5v1H4V6h1V5h2zm7 0v1h-2v1h-1V6h1V5h2z" fill-rule="evenodd" fill="#784632"/><path d="M3 7v6h1v1h1v1h10v-1h1v-1h1V7h-1v2h-1v1h-1v1H6v-1H5V9H4V7H3z" fill="#91553d"/><path d="M8 13v1h1v-1h3v-1H9v1H8z" fill="#dbac98"/><path d="M3 20v-3h1v-1h12v1h1v3H3z" fill="#ffffff"/><path d="M5 20v-2h1v-1h8v1h1v2h-2v-1h-2v1H9v-1H7v1H5z" fill="#ffffff"/><path d="M8 2h4v1h-1v1H9V3H8V2zM9 0v1H8v1h4V1h-1V0H9z" fill="#91553d"/></svg>