<svg xmlns="http://www.w3.org/2000/svg" xmlns:xlink="http://www.w3.org/1999/xlink" viewBox="0 0 20 20" version="1.1" shape-rendering="crispEdges"><path d="M3 20v-3h1v-1h4v-2h4v2h4v1h1v3H3z" fill="#eac393"/><path d="M5 15v-1H4v-1H3v-3H2V7h1V4h1V3h1V2h10v1h1v1h1v3h1v3h-1v3h-1v1h-1v1H5z" fill="#ecc99e"/><path d="M5 7h3v2H5V7zm7 0h3v2h-3V7z" fill="#ffffff"/><path d="M6 8h1v1H6V8zm7 1V8h1v1h-1z" fill="#5b7c8b"/><path d="M6 5h3v2H8V6H6V5zm5 0h3v1h-2v1h-1V5z" fill-rule="evenodd" fill="#000000"/><path d="M3 7v6h1v1h1v1h10v-1h1v-1h1V7h-1v2h-1v1h-1v1H6v-1H5V9H4V7H3z" fill="rgba(9,8,6,0.75)"/><path d="M7 12v1h1v1h4v-1H8v-1H7z" fill="#d1a490"/><path d="M3 20v-3h1v-1h4v1h4v-1h4v1h1v3H3z" fill="#ffffff"/><path d="M3 20v-1h1v1H3zm2 0v-1h1v1H5zm2 0v-1h1v1H7zm2 0v-1h1v1H9zm2 0v-1h1v1h-1zm2 0v-1h1v1h-1zm2 0v-1h1v1h-1zm1-2h1v1h-1v-1zm-2 0h1v1h-1v-1zm-2 0h1v1h-1v-1zm-2 0h1v1h-1v-1zm-2 0h1v1H8v-1zm-2 0h1v1H6v-1zm-2 0h1v1H4v-1zm-1-1h1v1H3v-1zm2 0h1v1H5v-1zm2 0h1v1H7v-1zm2 0h1v1H9v-1zm2 0h1v1h-1v-1zm2 0h1v1h-1v-1zm2 0h1v1h-1v-1zM4 16h1v1H4v-1zm2 0h1v1H6v-1zm6 0h1v1h-1v-1zm2 0h1v1h-1v-1z" fill-rule="evenodd" fill="#ffffff"/><path d="M3 7h1V5h2V4h2V3h1v1h2v1h2v1h2v1h2V4h-1V3h-1V2H5v1H4v1H3v3z" fill="#090806"/></svg>