<svg xmlns="http://www.w3.org/2000/svg" xmlns:xlink="http://www.w3.org/1999/xlink" viewBox="0 0 20 20" version="1.1" shape-rendering="crispEdges"><path d="M3 20v-3h1v-1h4v-2h4v2h4v1h1v3H3z" fill="#cb9e6e"/><path d="M5 15v-1H4v-1H3v-3H2V7h1V4h1V3h1V2h10v1h1v1h1v3h1v3h-1v3h-1v1h-1v1H5z" fill="#d0a87c"/><path d="M6 7h1v2H5V8h1V7zm7 0h1v2h-2V8h1V7z" fill="#ffffff"/><path d="M7 7h1v2H6V8h1V7zm7 0h1v2h-2V8h1V7z" fill="#c1c1ca"/><path d="M7 8h1v1H7V8zm7 0h1v1h-1V8z" fill="#76778b"/><path d="M4 7V5h3v1H5v1H4zm12-2v2h-1V6h-2V5h3zM7 5h1v1h1v1H8V6H7V5zm6 0v1h-1v1h-1V6h1V5h1z" fill-rule="evenodd" fill="#3b3227"/><path d="M9 12v2h2v-2H9z" fill="#e6a791"/><path d="M3 20v-3h1v-1h5v1h2v-1h5v1h1v3H3z" fill="#ffffff"/><path d="M9 20v-2H8v-1H6v-1h1v-1h1v1h1v1h2v-1h1v-1h1v1h1v1h-2v1h-1v2H9z" fill="#ffffff"/><path d="M2 4v1h1v1h2V4h1V2H4v1H3v1H2zm6-1h2v1h2V3h1V2H8v1zm6 1h1v2h2V5h1V4h-1V3h-1V2h-2v2z" fill-rule="evenodd" fill="#554838"/></svg>