<svg xmlns="http://www.w3.org/2000/svg" xmlns:xlink="http://www.w3.org/1999/xlink" viewBox="0 0 20 20" version="1.1" shape-rendering="crispEdges"><path d="M3 20v-3h1v-1h4v-2h4v2h4v1h1v3H3z" fill="#f5cfa0"/><path d="M5 15v-1H4v-1H3v-3H2V7h1V4h1V3h1V2h10v1h1v1h1v3h1v3h-1v3h-1v1h-1v1H5z" fill="#f6d4a9"/><path d="M6 7h1v2H5V8h1V7zm7 0h1v2h-2V8h1V7z" fill="#ffffff"/><path d="M7 7h1v2H6V8h1V7zm7 0h1v2h-2V8h1V7z" fill="#bbc3ce"/><path d="M7 8h1v1H7V8zm7 0h1v1h-1V8z" fill="#697b94"/><path d="M7 5v1H5v1H4V6h1V5h2zm7 0v1h-2v1h-1V6h1V5h2z" fill-rule="evenodd" fill="#9e8267"/><path d="M3 11v2h1v1h1v1h10v-1h1v-1h1v-2H3z" fill="rgba(184,151,120,0.75)"/><path d="M9 13h2v1H9v-1z" fill="#dbac98"/><path d="M3 20v-3h1v-1h4v1h4v-1h4v1h1v3H3z" fill="#ffffff"/><path d="M3 20v-2h1v2H3zm3 0v-2h2v2H6zm4 0v-2h2v2h-2zm4 0v-2h2v2h-2zm2-3v1h1v-1h-1zm-2 1v-2h-2v2h2zm-6-1v1h2v-1H8zm-4-1v2h2v-2H4z" fill-rule="evenodd" fill="#ffffff"/><path d="M2 7h1V5h2V4h1V3h1v1h2V3h4V2h1v1h1v1h1v1h1v2h1V6h1V4h-1V3h-1V2h-1V1h-1V0h-1v1h-2V0h-1v1H9V0H8v1H7V0H5v1H4v1H2v5z" fill="#b89778"/></svg>