<svg xmlns="http://www.w3.org/2000/svg" xmlns:xlink="http://www.w3.org/1999/xlink" viewBox="0 0 20 20" version="1.1" shape-rendering="crispEdges"><path d="M3 20v-3h1v-1h4v-2h4v2h4v1h1v3H3z" fill="#f5cfa0"/><path d="M5 15v-1H4v-1H3v-3H2V7h1V4h1V3h1V2h10v1h1v1h1v3h1v3h-1v3h-1v1h-1v1H5z" fill="#f6d4a9"/><path d="M5 7h3v3H5V7zm7 0h3v3h-3V7z" fill="#ffffff"/><path d="M6 7v2h2V8H7V7H6zm7 0v2h2V8h-1V7h-1z" fill="#abb7c2"/><path d="M6 8h1v1H6V8zm7 0h1v1h-1V8z" fill="#647b90"/><path d="M7 7v1h1V7H7zm7 0h1v1h-1V7z" fill="#d4dbe1"/><path d="M5 5h3v1h1v1H8V6H5V5zm10 0h-3v1h-1v1h1V6h3V5z" fill-rule="evenodd" fill="#9e8267"/><path d="M3 13h1v1h1v1h10v-1h1v-1h1v-3h-1v1h-1v1H5v-1H4v-1H3v3z" fill="rgba(184,151,120,0.5)"/><path d="M9 13v1h1v-1H9z" fill="#dbb2a0"/><g fill-rule="evenodd"><path d="M3 19h14v1H3v-1zm0-2h14v1H3v-1z" fill="#ffffff"/><path d="M3 18h14v1H3v-1zm1-2h4v1H4v-1zm8 0h4v1h-4v-1z" fill="#ffffff"/></g><path d="M3 8h1V5h12v3h1V4h-1V3h-1V2H5v1H4v1H3v4z" fill="#b89778"/></svg>