<svg xmlns="http://www.w3.org/2000/svg" xmlns:xlink="http://www.w3.org/1999/xlink" viewBox="0 0 20 20" version="1.1" shape-rendering="crispEdges"><path d="M3 20v-3h1v-1h4v-2h4v2h4v1h1v3H3z" fill="#e0b687"/><path d="M5 15v-1H4v-1H3v-3H2V7h1V4h1V3h1V2h10v1h1v1h1v3h1v3h-1v3h-1v1h-1v1H5z" fill="#e3bd93"/><path d="M6 8h1v1H6V8zm7 0h1v1h-1V8z" fill="#ffffff"/><path d="M7 8h1v1H7V8zm5 0h1v1h-1V8z" fill="#588387"/><path d="M5 5h3v1h1v1H8V6H5V5zm10 0h-3v1h-1v1h1V6h3V5z" fill-rule="evenodd" fill="#8c5a3b"/><path d="M3 11v2h1v1h1v1h10v-1h1v-1h1v-2H3z" fill="rgba(165,107,70,0.5)"/><path d="M9 12v2h2v-2H9z" fill="#c7917d"/><path d="M3 20v-3h1v-1h3v1h6v-1h3v1h1v3H3z" fill="#ffffff"/><path d="M4 20v-1h1v-3h1v2h8v-2h1v3h1v1H4z" fill="#ffffff"/><path d="M11 20v-1h3v1h-3z" fill="#ffffff"/><path d="M0 7h1v5h1v1h1V9h1V7h1V6h1V4h1V3h7v1h1v1h1v1h1v7h1v-2h1V7h-1V6h1V4h-1v1h-1V3h1V2h-1v1h-1V2h-2V1h-1V0h-1v1H5V0H4v1H3V0H2v1h1v2H2V2H1v1h1v1H1v2H0v1z" fill="#a56b46"/></svg>