<svg xmlns="http://www.w3.org/2000/svg" xmlns:xlink="http://www.w3.org/1999/xlink" viewBox="0 0 20 20" version="1.1" shape-rendering="crispEdges"><path d="M3 20v-3h1v-1h4v-2h4v2h4v1h1v3H3z" fill="#8d5524"/><path d="M5 15v-1H4v-1H3v-3H2V7h1V4h1V3h1V2h10v1h1v1h1v3h1v3h-1v3h-1v1h-1v1H5z" fill="#986639"/><path d="M5 7h3v2H5V7zm7 0h3v2h-3V7z" fill="#ffffff"/><path d="M6 8h1v1H6V8zm7 1V8h1v1h-1z" fill="#5b7c8b"/><path d="M6 5h3v2H8V6H6V5zm5 0h3v1h-2v1h-1V5z" fill-rule="evenodd" fill="#7a4833"/><path d="M8 12v2h4v-2H8z" fill="#ffffff"/><path d="M3 20v-3h1v-1h4v1h4v-1h4v1h1v3H3z" fill="#ffffff"/><path d="M3 20v-2h1v2H3zm3 0v-2h2v2H6zm4 0v-2h2v2h-2zm4 0v-2h2v2h-2zm2-3v1h1v-1h-1zm-2 1v-2h-2v2h2zm-6-1v1h2v-1H8zm-4-1v2h2v-2H4z" fill-rule="evenodd" fill="#ffffff"/><path d="M3 7h1V5h2V3h8v1h1v1h1v2h1V3h-2V2h-2V1h-1v1h-2V1H9v1H8V1H7v1H5v1H4v1H3v3z" fill="#b86b4d"/></svg>