<svg xmlns="http://www.w3.org/2000/svg" xmlns:xlink="http://www.w3.org/1999/xlink" viewBox="0 0 20 20" version="1.1" shape-rendering="crispEdges"><path d="M3 20v-3h1v-1h4v-2h4v2h4v1h1v3H3z" fill="#8d5524"/><path d="M5 15v-1H4v-1H3v-3H2V7h1V4h1V3h1V2h10v1h1v1h1v3h1v3h-1v3h-1v1h-1v1H5z" fill="#986639"/><path d="M5 7h3v2H5V7zm7 0h3v2h-3V7z" fill="#ffffff"/><path d="M5 8h2v1H5V8zm7 0h2v1h-2V8z" fill="#5b7c8b"/><path d="M7 5v1H5v1H4V6h1V5h2zm6 0h2v1h1v1h-1V6h-2V5z" fill-rule="evenodd" fill="#362e2e"/><path d="M3 13h1v1h1v1h10v-1h1v-1h1v-3h-1v1h-1v1H5v-1H4v-1H3v3z" fill="rgba(80,68,68,0.5)"/><path d="M8 12v1h3v1h1v-1h-1v-1H8z" fill="#eec1ad"/><path d="M3 20v-3h1v-1h4v1h4v-1h4v1h1v3H3z" fill="#ffffff"/><path d="M2 4v1h1v1h2V4h1V2H4v1H3v1H2zm6-1h2v1h2V3h1V2H8v1zm6 1h1v2h2V5h1V4h-1V3h-1V2h-2v2z" fill-rule="evenodd" fill="#504444"/></svg>