<svg xmlns="http://www.w3.org/2000/svg" xmlns:xlink="http://www.w3.org/1999/xlink" viewBox="0 0 20 20" version="1.1" shape-rendering="crispEdges"><path d="M3 20v-3h1v-1h4v-2h4v2h4v1h1v3H3z" fill="#8d5524"/><path d="M5 15v-1H4v-1H3v-3H2V7h1V4h1V3h1V2h10v1h1v1h1v3h1v3h-1v3h-1v1h-1v1H5z" fill="#986639"/><path d="M5 7h3v3H5V7zm7 0h3v3h-3V7z" fill="#ffffff"/><path d="M6 7v2h2V8H7V7H6zm7 0v2h2V8h-1V7h-1z" fill="#adb7c5"/><path d="M6 8h1v1H6V8zm7 0h1v1h-1V8z" fill="#697b94"/><path d="M7 7v1h1V7H7zm7 0h1v1h-1V7z" fill="#d6dbe2"/><path d="M5 5h3v1h1v1H8V6H5V5zm10 0h-3v1h-1v1h1V6h3V5z" fill-rule="evenodd" fill="#472622"/><path d="M3 10v3h1v1h1v1h10v-1h1v-1h1v-3h-3v1H6v-1H3z" fill="rgba(97,52,47,0.5)"/><path d="M8 13h4v1H8v-1z" fill="#dbac98"/><path d="M3 20v-3h1v-1h3v2h6v-2h3v1h1v3H3z" fill="#ffffff"/><path d="M5 20v-4h1v4H5zm9 0v-4h1v4h-1z" fill-rule="evenodd" fill="#ffffff"/><path d="M3 7h1V5h2V3h8v1h1v1h1v2h1V3h-2V2h-2V1h-1v1h-2V1H9v1H8V1H7v1H5v1H4v1H3v3z" fill="#61342f"/></svg>