<svg xmlns="http://www.w3.org/2000/svg" xmlns:xlink="http://www.w3.org/1999/xlink" viewBox="0 0 20 20" version="1.1" shape-rendering="crispEdges"><path d="M3 20v-3h1v-1h4v-2h4v2h4v1h1v3H3z" fill="#f5cfa0"/><path d="M5 15v-1H4v-1H3v-3H2V7h1V4h1V3h1V2h10v1h1v1h1v3h1v3h-1v3h-1v1h-1v1H5z" fill="#f6d4a9"/><path d="M5 7h3v3H5V7zm7 0h3v3h-3V7z" fill="#ffffff"/><path d="M6 8h1v1H6V8zm7 0h1v1h-1V8z" fill="#588387"/><path d="M8 4v1H7v1H5V5h2V4h1zm4 0h1v1h2v1h-2V5h-1V4z" fill-rule="evenodd" fill="#362e2e"/><path d="M3 10v3h1v1h1v1h10v-1h1v-1h1v-3h-3v1H6v-1H3z" fill="rgba(80,68,68,0.5)"/><path d="M8 13h3v1H8v-1z" fill="#dbac98"/><g fill-rule="evenodd"><path d="M3 19h14v1H3v-1zm0-2h14v1H3v-1z" fill="#ffffff"/><path d="M3 18h14v1H3v-1zm1-2h4v1H4v-1zm8 0h4v1h-4v-1z" fill="#ffffff"/></g><path d="M8 2h4v1h-1v1H9V3H8V2zM9 0v1H8v1h4V1h-1V0H9z" fill="#504444"/></svg>