<svg xmlns="http://www.w3.org/2000/svg" xmlns:xlink="http://www.w3.org/1999/xlink" viewBox="0 0 20 20" version="1.1" shape-rendering="crispEdges"><path d="M3 20v-3h1v-1h4v-2h4v2h4v1h1v3H3z" fill="#e0b687"/><path d="M5 15v-1H4v-1H3v-3H2V7h1V4h1V3h1V2h10v1h1v1h1v3h1v3h-1v3h-1v1h-1v1H5z" fill="#e3bd93"/><path d="M5 7h3v2H5V7zm7 0h3v2h-3V7z" fill="#ffffff"/><path d="M5 8h2v1H5V8zm7 0h2v1h-2V8z" fill="#697b94"/><path d="M6 5h2v1h1v1H8V6H6V5zm8 0h-2v1h-1v1h1V6h2V5z" fill-rule="evenodd" fill="#784632"/><path d="M8 13h3v1H8v-1z" fill="#facbb6"/><path d="M3 20v-3h1v-1h12v1h1v3H3z" fill="#ffffff"/><path d="M8 16v1H7v1h1v1h1v-1h2v1h1v-1h1v-1h-1v-1H8z" fill="#ffffff"/><path d="M9 16v1h2v-1H9z" fill="#ffffff"/></svg>