<svg xmlns="http://www.w3.org/2000/svg" xmlns:xlink="http://www.w3.org/1999/xlink" viewBox="0 0 20 20" version="1.1" shape-rendering="crispEdges"><path d="M3 20v-3h1v-1h4v-2h4v2h4v1h1v3H3z" fill="#cb9e6e"/><path d="M5 15v-1H4v-1H3v-3H2V7h1V4h1V3h1V2h10v1h1v1h1v3h1v3h-1v3h-1v1h-1v1H5z" fill="#d0a87c"/><path d="M5 9V7h3v2H5zm7-2h3v2h-3V7z" fill="#ffffff"/><path d="M7 8v1h1V8H7zm7 0h1v1h-1V8z" fill="#76778b"/><path d="M6 5H4v2h1V6h1V5zm8 0h2v2h-1V6h-1V5z" fill-rule="evenodd" fill="#875739"/><path d="M10 12v1H9v1h2v-2h-1z" fill="#eec1ad"/><path d="M3 20v-3h1v-1h4v1h4v-1h4v1h1v3H3z" fill="#ffffff"/><path d="M3 20v-2h1v2H3zm3 0v-2h2v2H6zm4 0v-2h2v2h-2zm4 0v-2h2v2h-2zm2-3v1h1v-1h-1zm-2 1v-2h-2v2h2zm-6-1v1h2v-1H8zm-4-1v2h2v-2H4z" fill-rule="evenodd" fill="#ffffff"/><path d="M4 4h12V3h-1V2H5v1H4v1z" fill="#a16743"/></svg>