<svg xmlns="http://www.w3.org/2000/svg" xmlns:xlink="http://www.w3.org/1999/xlink" viewBox="0 0 20 20" version="1.1" shape-rendering="crispEdges"><path d="M3 20v-3h1v-1h4v-2h4v2h4v1h1v3H3z" fill="#f5cfa0"/><path d="M5 15v-1H4v-1H3v-3H2V7h1V4h1V3h1V2h10v1h1v1h1v3h1v3h-1v3h-1v1h-1v1H5z" fill="#f6d4a9"/><path d="M6 8h1v1H6V8zm7 0h1v1h-1V8z" fill="#ffffff"/><path d="M7 8h1v1H7V8zm5 0h1v1h-1V8z" fill="#588387"/><path d="M5 6h2v1H5V6zm8 0h2v1h-2V6z" fill-rule="evenodd" fill="#8c7058"/><path d="M3 13h1v1h1v1h10v-1h1v-1h1v-3h-1v1h-1v1H5v-1H4v-1H3v3z" fill="rgba(167,133,106,0.5)"/><path d="M8 12v2h4v-2H8z" fill="#ffffff"/><path d="M3 20v-3h1v-1h4v1h1v1h2v-1h1v-1h4v1h1v3H3z" fill="#ffffff"/><path d="M4 17v-1h3v1H4zm9 0v-1h3v1h-3z" fill-rule="evenodd" fill="#ffffff"/><path d="M2 7h1V5h2V4h1V3h1v1h2V3h4V2h1v1h1v1h1v1h1v2h1V6h1V4h-1V3h-1V2h-1V1h-1V0h-1v1h-2V0h-1v1H9V0H8v1H7V0H5v1H4v1H2v5z" fill="#a7856a"/></svg>